Patient4_TMGait_0pt6_01_left_28_EMG.mot
version=1
nRows=16
nColumns=33
inDegrees=no
endheader
time	1LAddLong	2LGlutMax	3LGlutMed	4LIliopsoas	5LSemiMemb	6LBicFemLong	7LRecFem	8LVastMed	9LVastLat	10LGasMed	11LTibAnt	12lTibPost	13LPeroneusLong	14LSol	15LExtDigLong	16LFlexDigLong	17RAddLong	18RGlutMax	19RGlutMed	20RIliopsoas	21RSemiMemb	22RBicFemLong	23RRecFem	24RVastMed	25RVastLat	26RGasMed	27RTibAnt	28RTibPost	29RPeroneusLong	30RSol	31RExtDigLong	32RFlexDigLong
34.46	0.016632	0.89493	-0.066681	0.008698	-0.060425	-0.18021	0.2803	-0.009003	-0.018616	0.20752	-0.014191	-0.033417	0.14023	-0.090332	0.010834	0.039673	0.072327	0.53406	-0.050507	0.092163	0.006561	-0.29175	0.6221	-0.17425	-0.016022	-0.02655	0.09552	0.036163	-0.15091	-0.16037	0.004272	-0.019989
34.461	0.034332	0.89432	-0.10086	0.010834	-0.057068	-0.30228	0.28351	-0.016785	-0.093231	0.080414	-0.030365	-0.020752	0.18829	-0.098419	-0.016022	0.037384	0.087433	0.55832	-0.09964	0.084076	0.0383	-0.26398	0.62363	-0.11322	-0.013123	-0.017548	0.10513	0.020752	-0.2626	-0.34759	0.000916	-0.023346
34.462	0.041962	0.81741	-0.091553	0.016174	-0.027466	-0.15976	0.34637	-0.016327	-0.092773	0.016479	0.048065	-0.005188	-0.17883	-0.18524	-0.036011	0.041962	0.11231	0.55008	-0.12543	0.050201	0.071869	-0.31647	0.60806	-0.10315	-0.044861	-0.014954	0.11215	-0.011902	-0.15564	-0.20248	-0.002136	-0.027008
34.463	0.045624	0.73456	-0.11276	0.006104	-0.013123	0.072632	0.28107	0.001373	-0.050659	0.29602	0.075378	-0.001984	-0.008392	-0.15335	0.023346	0.037689	0.15839	0.44525	-0.080566	-0.019836	0.037384	-0.3714	0.58701	-0.096436	-0.031891	-0.00412	0.10742	0.0354	-0.097809	0.28061	-0.000763	-0.020142
34.464	0.041656	0.6221	-0.12604	0.020142	-0.045166	0.057678	0.28839	-0.021057	0.093231	0.457	-0.044098	-0.004883	0.096436	-0.046844	0.008392	0.039368	0.15656	0.50262	-0.056152	-0.045776	-0.04364	-0.3215	0.58136	-0.10986	-0.020142	-0.00946	0.10086	0.0383	0.029907	-0.030975	-0.006714	-0.018768
34.465	0.024414	0.52017	-0.11887	0.024719	-0.08316	-0.29495	0.37491	-0.014801	0.003357	0.060272	-0.050507	-0.017395	0.029602	-0.20798	0.037079	0.031586	0.094452	0.45944	-0.042572	-0.071411	-0.081482	-0.15228	0.53802	-0.10086	-0.02655	-0.014038	0.092621	0.005035	0.084686	-0.057526	-0.014038	-0.024567
34.466	0.011444	0.49637	-0.12238	0.026245	-0.15182	-0.36041	0.327	-0.012817	-0.067902	0.14664	-0.027161	-0.021057	-0.15243	-0.39764	0.066071	0.024109	0.030365	0.46081	-0.089874	-0.050812	0.000305	0.065155	0.5365	-0.039215	-0.022888	-0.007019	0.072784	-0.001373	0.048676	-0.053711	0.003204	-0.018921
34.467	0.009003	0.50079	-0.19028	-0.001526	-0.22125	-0.72357	0.18814	0.017548	-0.0177	0.33768	-0.023041	-0.013885	-0.008545	-0.55862	0.15747	0.018768	0.04776	0.3804	-0.28641	0.049744	-0.011902	0.02655	0.49652	-0.055389	-0.019836	0.002747	0.047913	-0.009613	-0.15167	0.2066	-0.001526	-0.013428
34.468	0.016174	0.47409	-0.095367	-0.002441	-0.02182	-0.39291	0.041962	0.029449	0.14145	0.72296	0.026093	-0.000305	0.073547	-0.57693	0.14328	0.027924	0.011444	0.40878	-0.2269	0.097961	0.005188	-0.002289	0.56412	-0.059052	-0.0177	0.001373	0.053406	-0.006104	-0.42358	-0.054169	-0.000153	-0.016022
34.469	0.038605	0.51117	0.053558	0.006409	0.091705	-0.16922	-0.10162	0.031891	0.2504	0.51163	0.044556	0.011902	0.11536	-0.38605	0.1976	0.029297	0.002594	0.36911	-0.17288	0.043182	-0.011444	0.060577	0.49835	-0.028381	0.002747	0.008087	0.060425	-0.01709	-0.4538	-0.27939	-0.000153	-0.019684
34.47	0.048981	0.43411	-0.02121	0.016327	0.035095	-0.11154	-0.098877	0.036469	0.21484	-0.10727	0.079651	0.040894	-0.005951	-0.21896	0.092926	0.033722	-0.058594	0.30487	-0.17792	-0.010986	-0.043335	-0.000916	0.55939	-0.043488	-0.004425	0.00824	0.081177	-0.052948	-0.35309	-0.17425	0.000763	-0.016174
34.471	0.059814	0.35553	-0.12756	0.027313	0.04837	0.13855	-0.13687	0.034027	0.18524	-0.75241	0.055084	0.053711	-0.26749	-0.082245	0.045776	0.031433	-0.096893	0.14191	-0.27191	-0.05127	0.00946	-0.093842	0.52124	-0.052948	-0.006866	0.006714	0.073853	-0.052185	0.032349	-0.14282	-0.000458	-0.012817
34.472	0.048523	0.37949	-0.076599	0.01358	-0.001984	0.24735	-0.029755	0.009918	0.17746	-0.6691	0.039978	0.034027	0.3392	0.13016	-0.079651	0.031128	-0.057526	0.089569	-0.29907	-0.084839	0.022278	-0.1384	0.56625	-0.089569	-0.023804	0.012054	0.093384	-0.010834	0.37003	-0.29236	-0.004578	-0.016174
34.473	0.048065	0.44479	0.029297	0.000153	-0.058594	0.20905	-0.041351	-0.015717	0.17502	-0.41	0.02243	0.021057	0.38177	0.18646	-0.26199	0.001221	-0.026703	0.039215	-0.2771	-0.061798	0.10956	-0.20416	0.5835	-0.099792	-0.037384	-0.005341	0.084534	0.010223	0.27847	-0.4982	0.000763	-0.015259
34.474	0.026398	0.49179	0.021515	-0.017395	-0.066071	0.21133	-0.086365	-0.044556	0.10208	-0.36224	0.013885	0.005646	0.14801	0.29678	-0.25406	-0.004578	-0.046692	-0.0177	-0.32394	-0.009308	0.11459	-0.18982	0.60318	-0.12924	-0.050354	-0.00824	0.074921	0.018311	0.097961	-0.63294	0.004272	-0.007324
34.475	-0.000305	0.47165	-0.10849	0.003815	-0.024719	0.091248	-0.16739	-0.063782	-0.045013	-0.24811	0.050659	0.006104	0.063171	0.44891	-0.04776	0.012817	0.004425	-0.062103	-0.22903	0.088806	0.085754	-0.21454	0.59876	-0.15106	-0.06012	-0.016174	0.092163	0.026245	0.011749	-0.28503	0.000305	-0.019226
